<svg width="72" height="72" viewBox="0 0 72 72" fill="none" xmlns="http://www.w3.org/2000/svg">
  <defs>
    <radialGradient id="fav-voidGlow" cx="50%" cy="50%" r="50%">
      <stop offset="0%" stop-color="#000000" />
      <stop offset="55%" stop-color="#1a0040" />
      <stop offset="80%" stop-color="#3b0d7a" stop-opacity="0.6" />
      <stop offset="100%" stop-color="#000" stop-opacity="0" />
    </radialGradient>
    <filter id="fav-glowFilter">
      <feGaussianBlur stdDeviation="2.5" result="coloredBlur"/>
      <feMerge><feMergeNode in="coloredBlur"/><feMergeNode in="SourceGraphic"/></feMerge>
    </filter>
    <filter id="fav-glowStrong">
      <feGaussianBlur stdDeviation="4" result="coloredBlur"/>
      <feMerge><feMergeNode in="coloredBlur"/><feMergeNode in="SourceGraphic"/></feMerge>
    </filter>
  </defs>

  <circle cx="36" cy="36" r="32" fill="url(#fav-voidGlow)" opacity="0.7" />
  <path d="M36 10 C50 14 58 24 56 36 C54 48 44 56 36 54" stroke="rgba(109,40,217,0.25)" stroke-width="6" fill="none" stroke-linecap="round" />
  <path d="M36 10 C22 14 14 24 16 36 C18 48 28 56 36 54" stroke="rgba(76,29,149,0.2)" stroke-width="5" fill="none" stroke-linecap="round" />
  <path d="M36 8 C54 10 64 22 62 36 C60 50 48 60 36 62" stroke="rgba(147,51,234,0.15)" stroke-width="3" fill="none" stroke-linecap="round" />
  <path d="M36 8 C18 10 8 22 10 36 C12 50 24 60 36 62" stroke="rgba(109,40,217,0.12)" stroke-width="3" fill="none" stroke-linecap="round" />
  <circle cx="36" cy="36" r="22" fill="#2a1060" />
  <circle cx="36" cy="36" r="26" stroke="#9333ea" stroke-width="3.5" fill="none" filter="url(#fav-glowStrong)" />
  <circle cx="36" cy="36" r="23" stroke="#7c3aed" stroke-width="1" fill="none" opacity="0.6" />
  <path d="M 17 28 A 22 22 0 0 1 36 14" stroke="#c084fc" stroke-width="3" fill="none" stroke-linecap="round" filter="url(#fav-glowFilter)" />
  <path d="M 20 31 A 18 18 0 0 1 36 17" stroke="rgba(232,180,255,0.7)" stroke-width="1.5" fill="none" stroke-linecap="round" />
  <circle cx="36" cy="36" r="28" stroke="#6d28d9" stroke-width="6" fill="none" opacity="0.25" />
  <circle cx="36" cy="36" r="30" stroke="#4c1d95" stroke-width="4" fill="none" opacity="0.12" />
  <circle cx="24" cy="20" r="1" fill="#c084fc" opacity="0.7" />
  <circle cx="48" cy="18" r="0.8" fill="#a855f7" opacity="0.5" />
  <circle cx="52" cy="40" r="1.2" fill="#c084fc" opacity="0.6" />
  <circle cx="20" cy="50" r="0.9" fill="#9333ea" opacity="0.5" />
  <circle cx="42" cy="58" r="0.7" fill="#a855f7" opacity="0.4" />
</svg>
